HIERARCHY
ROOT Hips
{
  OFFSET 52.0033 56.1716 5.57464
  CHANNELS 6 Xposition Yposition Zposition Zrotation Xrotation Yrotation
  JOINT spine
  {
    OFFSET 0 6.3926 0.367606
    CHANNELS 3 Zrotation Xrotation Yrotation
    JOINT spine1
    {
      OFFSET 0 9.17611 0
      CHANNELS 3 Zrotation Xrotation Yrotation
      JOINT spine2
      {
        OFFSET 0 8.79238 0
        CHANNELS 3 Zrotation Xrotation Yrotation
        JOINT Neck
        {
          OFFSET 0 22.5737 1.07624
          CHANNELS 3 Zrotation Xrotation Yrotation
          JOINT Head
          {
            OFFSET 0 6.82011 0
            CHANNELS 3 Zrotation Xrotation Yrotation
            End Site
            {
              OFFSET 0 16.5085 -5.44426
            }
          }
        }
        JOINT RightShoulder
        {
          OFFSET -3.70221 9.49509 -0.515508
          CHANNELS 3 Zrotation Xrotation Yrotation
          JOINT RightArm
          {
            OFFSET 0 12.4537 0
            CHANNELS 3 Zrotation Xrotation Yrotation
            JOINT RightArmRoll
            {
              OFFSET 0 6.28685 0
              CHANNELS 3 Zrotation Xrotation Yrotation
              JOINT RightForeArm
              {
                OFFSET 0 18.3114 0
                CHANNELS 3 Zrotation Xrotation Yrotation
                JOINT RightForeArmRoll
                {
                  OFFSET 0 7.05482 0
                  CHANNELS 3 Zrotation Xrotation Yrotation
                  JOINT RightHand
                  {
                    OFFSET 0 14.1575 0
                    CHANNELS 3 Zrotation Xrotation Yrotation
                    End Site
                    {
                      OFFSET 0 0 0
                    }
                  }
                }
              }
            }
          }
        }
        JOINT LeftShoulder
        {
          OFFSET 3.70221 9.49509 -0.515508
          CHANNELS 3 Zrotation Xrotation Yrotation
          JOINT LeftArm
          {
            OFFSET 0 12.4537 0
            CHANNELS 3 Zrotation Xrotation Yrotation
            JOINT LeftArmRoll
            {
              OFFSET 0 6.28686 0
              CHANNELS 3 Zrotation Xrotation Yrotation
              JOINT LeftForeArm
              {
                OFFSET 0 18.3114 0
                CHANNELS 3 Zrotation Xrotation Yrotation
                JOINT LeftForeArmRoll
                {
                  OFFSET 0 7.05483 0
                  CHANNELS 3 Zrotation Xrotation Yrotation
                  JOINT LeftHand
                  {
                    OFFSET 0 14.1575 0
                    CHANNELS 3 Zrotation Xrotation Yrotation
                    End Site
                    {
                      OFFSET 0 0 0
                    }
                  }
                }
              }
            }
          }
        }
      }
    }
  }
  JOINT RightUpLeg
  {
    OFFSET -5.66616 -1.03903 -0.87161
    CHANNELS 3 Zrotation Xrotation Yrotation
    JOINT RightUpLegRoll
    {
      OFFSET 0 16.6005 0
      CHANNELS 3 Zrotation Xrotation Yrotation
      JOINT RightLeg
      {
        OFFSET 0 -20.5572 0
        CHANNELS 3 Zrotation Xrotation Yrotation
        JOINT RightLegRoll
        {
          OFFSET 0 20.6244 0
          CHANNELS 3 Zrotation Xrotation Yrotation
          JOINT RightFoot
          {
            OFFSET 0 17.1664 0
            CHANNELS 3 Zrotation Xrotation Yrotation
            JOINT RightToeBase
            {
              OFFSET 0 14.3502 0
              CHANNELS 3 Zrotation Xrotation Yrotation
              End Site
              {
                OFFSET 0.00608252 6.94971 -0.80106
              }
            }
          }
        }
      }
    }
  }
  JOINT LeftUpLeg
  {
    OFFSET 5.66616 -1.03903 -0.87161
    CHANNELS 3 Zrotation Xrotation Yrotation
    JOINT LeftUpLegRoll
    {
      OFFSET 0 16.6006 0
      CHANNELS 3 Zrotation Xrotation Yrotation
      JOINT LeftLeg
      {
        OFFSET 0 20.5571 0
        CHANNELS 3 Zrotation Xrotation Yrotation
        JOINT LeftLegRoll
        {
          OFFSET 0 20.8151 0
          CHANNELS 3 Zrotation Xrotation Yrotation
          JOINT LeftFoot
          {
            OFFSET 0 16.9757 0
            CHANNELS 3 Zrotation Xrotation Yrotation
            JOINT LeftToeBase
            {
              OFFSET 0 14.3502 0
              CHANNELS 3 Zrotation Xrotation Yrotation
              End Site
              {
                OFFSET -0.0272592 6.94971 -0.80106
              }
            }
          }
        }
      }
    }
  }
}
MOTION
Frames: 13
Frame Time: 0.00208333
52.0319 57.7059 5.22851 1.94277 15.9624 3.22614 -0.545101 2.10481 -0.92853 -1.0513 8.22055 -1.77039 -1.03269 9.86516 -1.7561 4.34913 -2.23729 0.461711 -2.33088 -2.63164 1.03794 52.373 2.37871 2.52678 114.104 24.4923 -37.0654 -4.53704e-008 -2.84039e-006 -3.13852e-006 -36.4587 87.4448 31.1659 -3.40143e-006 -4.95316e-006 -3 8.02897 -4.95145 0.69771 -41.3856 -3.4335 0.466641 -120.324 24.1902 31.8293 -4.45843e-006 -1.45764e-006 8.26897e-006 -15.5339 80.3933 18.5196 1.56319e-005 -6.84274e-006 3.00001 -8.02889 -4.95143 -0.69771 56.2536 81.0565 123.523 -180 7.01611e-015 179.249 -179.517 72.0838 176.59 -1.9828e-006 2.18575e-006 1.33658 -17.3702 65.8278 17.8867 8.13649 25.2327 -3.48774 -30.3356 85.3232 -149.838 4.54188e-006 -4.6773e-006 -0.840164 -0.979842 -70.9248 1.70758 -1.60808e-006 -3.04593e-006 -1.49222 16.6117 64.0251 -16.6931 -8.13568 25.2333 3.48658 
52.0441 57.7058 5.20202 1.96003 15.809 3.26293 -0.545818 2.11467 -0.935485 -1.05294 8.24035 -1.78401 -1.03418 9.88496 -1.76973 4.38934 -2.17826 0.449151 -2.36716 -2.60355 1.03184 52.3965 2.32183 2.48353 114.2 24.5385 -37.0136 -4.53704e-008 -2.84039e-006 -3.13852e-006 -33.2642 87.3348 28.0542 -3.40143e-006 -4.95316e-006 -3 8.02897 -4.95145 0.69771 -41.3578 -3.42193 0.453796 -120.377 24.1664 31.7953 -4.45843e-006 -1.45764e-006 8.26897e-006 -15.5225 80.2972 18.473 1.56319e-005 -6.84274e-006 3.00001 -8.02889 -4.95143 -0.69771 57.2713 81.0618 122.489 -180 7.0161e-015 179.247 -179.511 72.0541 176.582 -1.9828e-006 2.18575e-006 1.33667 -17.377 65.8346 17.892 8.13649 25.2327 -3.48774 -30.7716 85.4772 -149.404 4.54188e-006 -4.6773e-006 -0.842273 -1.00751 -70.8209 1.68549 -1.60808e-006 -3.04593e-006 -1.48997 16.6157 64.03 -16.6955 -8.13568 25.2333 3.48658 
52.0576 57.7318 5.17788 1.97776 15.6581 3.29897 -0.546611 2.12376 -0.941778 -1.05476 8.2586 -1.7963 -1.03586 9.9032 -1.78201 4.43132 -2.11979 0.435048 -2.40463 -2.57285 1.02454 52.4196 2.26166 2.43817 114.296 24.5832 -36.9642 -4.53704e-008 -2.84039e-006 -3.13852e-006 -30.2977 87.2153 25.1713 -3.40143e-006 -4.95316e-006 -3 8.02897 -4.95145 0.69771 -41.3292 -3.40532 0.436472 -120.43 24.1423 31.7579 -4.45843e-006 -1.45764e-006 8.26897e-006 -15.5059 80.1967 18.4201 1.56319e-005 -6.84274e-006 3.00001 -8.02889 -4.95143 -0.69771 58.2785 81.0639 121.466 -180 7.0161e-015 179.246 -179.507 72.0259 176.575 -1.9828e-006 2.18575e-006 1.33673 -17.3836 65.8412 17.8973 8.13649 25.2327 -3.48774 -31.2379 85.6291 -148.939 4.54188e-006 -4.6773e-006 -0.844324 -1.03578 -70.7194 1.66278 -1.60808e-006 -3.04593e-006 -1.48773 16.6194 64.0347 -16.6979 -8.13568 25.2333 3.48658 
52.0691 57.7358 5.14532 1.99591 15.5102 3.33371 -0.547518 2.13191 -0.947204 -1.05683 8.27495 -1.80684 -1.0378 9.91955 -1.79255 4.47547 -2.06202 0.419196 -2.4436 -2.53933 1.01589 52.4432 2.19777 2.39023 114.393 24.6262 -36.9178 -4.53704e-008 -2.84039e-006 -3.13852e-006 -27.5708 87.0881 22.528 -3.40143e-006 -4.95316e-006 -3 8.02897 -4.95145 0.69771 -41.3005 -3.38292 0.414087 -120.482 24.1183 31.7165 -4.45843e-006 -1.45764e-006 8.26897e-006 -15.4836 80.092 18.3605 1.56319e-005 -6.84274e-006 3.00001 -8.02889 -4.95143 -0.69771 59.2654 81.0632 120.465 -180 7.0161e-015 179.244 -179.506 71.9997 176.57 -1.9828e-006 2.18575e-006 1.33675 -17.3896 65.8473 17.9022 8.13649 25.2327 -3.48774 -31.7368 85.7777 -148.442 4.54188e-006 -4.6773e-006 -0.846288 -1.06486 -70.6213 1.63929 -1.60808e-006 -3.04593e-006 -1.48552 16.6229 64.0393 -16.7003 -8.13568 25.2333 3.48658 
52.0723 57.7236 5.08596 2.01447 15.3662 3.36662 -0.548572 2.13895 -0.951564 -1.0592 8.2891 -1.81524 -1.04009 9.93369 -1.80093 4.52219 -2.00506 0.40139 -2.48437 -2.50278 1.00573 52.4683 2.12971 2.33924 114.487 24.6674 -36.8753 -4.53704e-008 -2.84039e-006 -3.13852e-006 -25.0857 86.9547 20.126 -3.40143e-006 -4.95316e-006 -3 8.02897 -4.95145 0.69771 -41.2722 -3.354 0.386057 -120.533 24.095 31.6707 -4.45843e-006 -1.45764e-006 8.26897e-006 -15.4549 79.9833 18.2935 1.56319e-005 -6.84274e-006 3.00001 -8.02889 -4.95143 -0.69771 60.2223 81.0598 119.494 -180 7.0161e-015 179.242 -179.506 71.9761 176.567 -1.9828e-006 2.18575e-006 1.33673 -17.3951 65.8529 17.9068 8.13649 25.2327 -3.48774 -32.27 85.9215 -147.91 4.54188e-006 -4.6773e-006 -0.848134 -1.09495 -70.5274 1.61484 -1.60808e-006 -3.04593e-006 -1.48336 16.626 64.0439 -16.7027 -8.13568 25.2333 3.48658 
52.0827 57.7278 5.05894 2.03338 15.2268 3.39716 -0.549811 2.14472 -0.954656 -1.06195 8.30069 -1.82109 -1.04278 9.94527 -1.80675 4.57186 -1.94904 0.381424 -2.52725 -2.46297 0.993928 52.4959 2.05705 2.28472 114.579 24.7068 -36.8373 -4.53704e-008 -2.84039e-006 -3.13852e-006 -22.838 86.817 17.9603 -3.40143e-006 -4.95316e-006 -3 8.02897 -4.95145 0.69771 -41.2449 -3.31781 0.351801 -120.581 24.0728 31.6198 -4.45843e-006 -1.45764e-006 8.26897e-006 -15.4191 79.8706 18.2186 1.56319e-005 -6.84274e-006 3.00001 -8.02889 -4.95143 -0.69771 61.1396 81.0542 118.564 -180 7.01609e-015 179.241 -179.507 71.9557 176.565 -1.9828e-006 2.18575e-006 1.33667 -17.3998 65.8577 17.9109 8.13649 25.2327 -3.48774 -32.8383 86.0589 -147.343 4.54188e-006 -4.6773e-006 -0.849833 -1.12626 -70.4389 1.58926 -1.60808e-006 -3.04593e-006 -1.48126 16.629 64.0484 -16.7053 -8.13568 25.2333 3.48658 
52.1102 57.7246 5.03523 2.0526 15.0926 3.4248 -0.55127 2.14906 -0.956276 -1.06515 8.30939 -1.82399 -1.04595 9.95398 -1.80961 4.62489 -1.89405 0.359093 -2.57253 -2.4197 0.980316 52.5268 1.97935 2.22621 114.666 24.7441 -36.8045 -4.53704e-008 -2.84039e-006 -3.13852e-006 -20.8185 86.6767 16.0213 -3.40143e-006 -4.95316e-006 -3 8.02897 -4.95145 0.69771 -41.2193 -3.27361 0.310736 -120.626 24.0519 31.5632 -4.45843e-006 -1.45764e-006 8.26897e-006 -15.3757 79.7541 18.1354 1.56319e-005 -6.84274e-006 3.00001 -8.02889 -4.95143 -0.69771 62.0077 81.0469 117.683 -180 7.01609e-015 179.239 -179.509 71.9391 176.565 -1.9828e-006 2.18575e-006 1.33659 -17.4036 65.8616 17.9144 8.13649 25.2327 -3.48774 -33.4419 86.1887 -146.741 4.54188e-006 -4.6773e-006 -0.851354 -1.15902 -70.3566 1.56238 -1.60808e-006 -3.04593e-006 -1.47926 16.6316 64.0529 -16.7079 -8.13568 25.2333 3.48658 
52.1167 57.7289 5.00133 2.07208 14.9644 3.44902 -0.552983 2.1518 -0.956225 -1.06887 8.31489 -1.82354 -1.04969 9.95947 -1.80909 4.68166 -1.84024 0.33419 -2.62053 -2.37275 0.964745 52.5621 1.89616 2.16322 114.747 24.7794 -36.7777 -4.53704e-008 -2.84039e-006 -3.13852e-006 -19.0158 86.5357 14.2967 -3.40143e-006 -4.95316e-006 -3 8.02897 -4.95145 0.69771 -41.1958 -3.22067 0.262282 -120.667 24.033 31.5004 -4.45843e-006 -1.45764e-006 8.26897e-006 -15.3243 79.6339 18.0435 1.56319e-005 -6.84274e-006 3.00001 -8.02889 -4.95143 -0.69771 62.8177 81.0383 116.862 -180 7.01609e-015 179.238 -179.512 71.9268 176.566 -1.9828e-006 2.18575e-006 1.33648 -17.4064 65.8644 17.9171 8.13649 25.2327 -3.48774 -34.0792 86.3094 -146.104 4.54188e-006 -4.6773e-006 -0.852668 -1.19344 -70.2816 1.53401 -1.60808e-006 -3.04593e-006 -1.47735 16.6341 64.0576 -16.7108 -8.13568 25.2333 3.48658 
52.1357 57.7206 4.98052 2.0917 14.8441 3.47073 -0.554886 2.15243 -0.954501 -1.07299 8.31616 -1.81974 -1.05387 9.96074 -1.80521 4.74307 -1.78688 0.306087 -2.6718 -2.32076 0.94676 52.5996 1.8059 2.09501 114.826 24.8113 -36.7572 -4.53704e-008 -2.84039e-006 -3.13852e-006 -17.3693 86.391 12.7278 -3.40143e-006 -4.95316e-006 -3 8.02897 -4.95145 0.69771 -41.1716 -3.15699 0.204374 -120.708 24.0148 31.4291 -4.45843e-006 -1.45764e-006 8.26897e-006 -15.259 79.5052 17.9358 1.56319e-005 -6.84274e-006 3.00001 -8.02889 -4.95143 -0.69771 63.5666 81.0271 116.102 -180 7.01609e-015 179.237 -179.519 71.9186 176.571 -1.9828e-006 2.18575e-006 1.3363 -17.4082 65.8663 17.9193 8.13649 25.2327 -3.48774 -34.7257 86.4208 -145.458 4.54188e-006 -4.6773e-006 -0.853704 -1.23118 -70.2118 1.50274 -1.60808e-006 -3.04593e-006 -1.47549 16.6361 64.0623 -16.7139 -8.13568 25.2333 3.48658 
52.1487 57.7212 4.94743 2.11141 14.7322 3.49125 -0.556889 2.15077 -0.951338 -1.07736 8.31286 -1.81305 -1.05833 9.95744 -1.79844 4.80934 -1.73332 0.274561 -2.72639 -2.26299 0.926203 52.6362 1.70791 2.02159 114.909 24.8392 -36.7426 -4.53704e-008 -2.84039e-006 -3.13852e-006 -15.8265 86.2393 11.2638 -3.40143e-006 -4.95316e-006 -3 8.02897 -4.95145 0.69771 -41.1437 -3.08196 0.136175 -120.753 23.9964 31.3483 -4.45843e-006 -1.45764e-006 8.26897e-006 -15.1774 79.3644 17.8087 1.56319e-005 -6.84274e-006 3.00001 -8.02889 -4.95143 -0.69771 64.2621 81.0117 115.396 -180 7.01609e-015 179.236 -179.53 71.9138 176.58 -1.9828e-006 2.18575e-006 1.33604 -17.4093 65.8676 17.9212 8.13649 25.2327 -3.48774 -35.3618 86.5245 -144.822 4.54188e-006 -4.6773e-006 -0.854445 -1.27319 -70.1449 1.46776 -1.60808e-006 -3.04593e-006 -1.47358 16.6378 64.067 -16.7172 -8.13568 25.2333 3.48658 
52.1468 57.702 4.93278 2.13125 14.6276 3.51059 -0.558991 2.14716 -0.946884 -1.08198 8.30562 -1.80379 -1.06307 9.95021 -1.78907 4.87983 -1.67977 0.240013 -2.78382 -2.20013 0.90337 52.6723 1.60315 1.94362 114.994 24.8636 -36.733 -4.53704e-008 -2.84039e-006 -3.13852e-006 -14.3853 86.0814 9.90255 -3.40143e-006 -4.95316e-006 -3 8.02897 -4.95145 0.69771 -41.1128 -2.99693 0.0589412 -120.8 23.9776 31.2592 -4.45843e-006 -1.45764e-006 8.26897e-006 -15.0837 79.2132 17.667 1.56319e-005 -6.84274e-006 3.00001 -8.02889 -4.95143 -0.69771 64.9117 80.9932 114.736 -180 7.01608e-015 179.235 -179.547 71.912 176.593 -1.9828e-006 2.18575e-006 1.3357 -17.4098 65.8683 17.923 8.13649 25.2327 -3.48774 -35.994 86.6216 -144.189 4.54188e-006 -4.6773e-006 -0.854941 -1.31864 -70.0808 1.42978 -1.60808e-006 -3.04593e-006 -1.47166 16.6391 64.0718 -16.7206 -8.13568 25.2333 3.48658 
52.1641 57.7091 4.8961 2.15126 14.5288 3.5288 -0.561194 2.14191 -0.941286 -1.08683 8.2951 -1.79223 -1.06808 9.93969 -1.77741 4.95391 -1.62641 0.202847 -2.84364 -2.13289 0.878555 52.7078 1.49256 1.86173 115.081 24.8849 -36.7279 -4.53704e-008 -2.84039e-006 -3.13852e-006 -13.0419 85.9182 8.63992 -3.40143e-006 -4.95316e-006 -3 8.02897 -4.95145 0.69771 -41.0796 -2.90322 -0.0260684 -120.849 23.9586 31.1634 -4.45843e-006 -1.45764e-006 8.26897e-006 -14.9816 79.0535 17.5148 1.56319e-005 -6.84274e-006 3.00001 -8.02889 -4.95143 -0.69771 65.5229 80.9724 114.116 -180 7.01608e-015 179.235 -179.567 71.9128 176.611 -1.9828e-006 2.18575e-006 1.33529 -17.4096 65.8686 17.9245 8.13649 25.2327 -3.48774 -36.6304 86.7132 -143.551 4.54188e-006 -4.6773e-006 -0.855242 -1.36671 -70.0195 1.38948 -1.60808e-006 -3.04593e-006 -1.46973 16.64 64.0765 -16.7241 -8.13568 25.2333 3.48658 
52.1643 57.7116 4.8835 2.17146 14.4346 3.54589 -0.563497 2.13535 -0.934694 -1.09191 8.28195 -1.77867 -1.07333 9.92654 -1.76373 5.03093 -1.57344 0.163465 -2.90539 -2.06197 0.852053 52.743 1.37711 1.77658 115.169 24.9039 -36.7266 -4.53704e-008 -2.84039e-006 -3.13852e-006 -11.7917 85.7505 7.47103 -3.40143e-006 -4.95316e-006 -3 8.02897 -4.95145 0.69771 -41.0447 -2.80218 -0.117597 -120.899 23.9393 31.0619 -4.45843e-006 -1.45764e-006 8.26897e-006 -14.8749 78.887 17.3564 1.56319e-005 -6.84274e-006 3.00001 -8.02889 -4.95143 -0.69771 66.1034 80.9501 113.527 -180 7.01608e-015 179.234 -179.59 71.9159 176.63 -1.9828e-006 2.18575e-006 1.33483 -17.409 65.8685 17.9258 8.13649 25.2327 -3.48774 -37.2808 86.8003 -142.899 4.54188e-006 -4.6773e-006 -0.855399 -1.41659 -69.9612 1.34753 -1.60808e-006 -3.04593e-006 -1.4678 16.6407 64.0812 -16.7276 -8.13568 25.2333 3.48658 
